<?xml version="1.0" standalone="no"?>
<!DOCTYPE svg PUBLIC "-//W3C//DTD SVG 20010904//EN"
 "http://www.w3.org/TR/2001/REC-SVG-20010904/DTD/svg10.dtd">
<svg version="1.0" xmlns="http://www.w3.org/2000/svg"
 width="1024.000000pt" height="1024.000000pt" viewBox="0 0 1024.000000 1024.000000"
 preserveAspectRatio="xMidYMid meet">
<metadata>
Created by potrace 1.16, written by Peter Selinger 2001-2019
</metadata>
<g transform="translate(0.000000,1024.000000) scale(0.100000,-0.100000)"
fill="#000000" stroke="none">
<path d="M0 5120 l0 -5120 5120 0 5120 0 0 5120 0 5120 -5120 0 -5120 0 0
-5120z m4020 3630 c3 -4 52 -11 110 -15 58 -4 110 -11 116 -16 7 -5 42 -12 80
-16 37 -3 79 -12 94 -20 14 -7 41 -13 61 -13 24 0 39 -5 43 -15 3 -9 18 -15
39 -15 19 0 40 -7 47 -15 7 -8 25 -15 40 -15 15 0 33 -7 40 -15 7 -8 27 -15
45 -15 20 0 35 -6 39 -15 3 -9 18 -15 39 -15 19 0 40 -7 47 -15 7 -8 20 -15
30 -15 10 0 20 -7 24 -15 3 -8 14 -15 24 -15 11 0 25 -7 32 -15 7 -8 20 -15
30 -15 10 0 20 -7 24 -15 3 -8 14 -15 24 -15 11 0 25 -7 32 -15 8 -10 31 -15
72 -15 43 0 60 4 64 15 4 8 14 15 24 15 10 0 23 7 30 15 7 8 20 15 30 15 10 0
23 7 30 15 7 8 18 15 25 15 7 0 18 7 25 15 7 8 20 15 30 15 10 0 23 7 30 15 7
8 25 15 40 15 15 0 33 7 40 15 7 8 28 15 47 15 21 0 36 6 39 15 4 8 16 15 29
15 13 0 25 7 29 15 4 10 19 15 49 15 27 0 49 6 57 15 7 8 29 15 49 15 20 0 45
6 56 14 11 7 53 16 93 19 41 3 79 10 85 15 7 6 58 13 115 17 56 4 105 11 108
16 7 12 477 12 490 -1 5 -5 57 -13 114 -16 58 -4 108 -11 111 -17 4 -5 31 -12
60 -14 30 -3 68 -11 86 -19 17 -8 47 -14 66 -14 22 0 37 -6 41 -15 3 -9 18
-15 39 -15 19 0 40 -7 47 -15 7 -8 25 -15 40 -15 15 0 33 -7 40 -15 7 -8 27
-15 45 -15 20 0 35 -6 39 -15 3 -8 14 -15 24 -15 11 0 25 -7 32 -15 7 -8 26
-15 42 -15 20 0 37 -9 55 -30 13 -16 33 -30 43 -30 10 0 23 -7 30 -15 7 -8 20
-15 30 -15 10 0 20 -7 24 -15 3 -8 14 -15 24 -15 10 0 31 -13 47 -30 16 -16
35 -30 43 -30 7 0 25 -13 39 -30 13 -16 31 -30 39 -30 9 0 34 -20 56 -45 23
-25 49 -45 58 -45 9 0 34 -19 55 -42 34 -39 83 -91 252 -269 29 -31 53 -64 53
-73 0 -9 11 -29 25 -44 14 -15 25 -34 25 -43 0 -8 14 -28 30 -44 17 -16 30
-37 30 -46 0 -10 5 -21 10 -24 6 -3 10 -14 10 -24 0 -10 7 -24 15 -31 8 -7 15
-20 15 -30 0 -9 13 -33 30 -51 19 -22 30 -45 30 -65 0 -17 7 -37 15 -44 8 -7
15 -21 15 -31 0 -10 5 -21 10 -24 6 -3 10 -21 10 -39 0 -19 7 -39 15 -46 8 -7
15 -23 15 -35 0 -13 7 -25 15 -29 11 -4 15 -20 15 -54 0 -32 5 -54 15 -62 10
-9 15 -32 15 -76 0 -34 5 -66 10 -69 6 -3 10 -30 10 -58 0 -30 7 -65 17 -82
15 -27 17 -82 17 -531 1 -409 -1 -504 -13 -517 -12 -15 -21 -73 -37 -247 -3
-30 -12 -69 -20 -87 -8 -17 -14 -47 -14 -66 0 -19 -7 -40 -15 -47 -8 -7 -15
-27 -15 -45 0 -18 -7 -38 -15 -45 -9 -7 -15 -29 -15 -51 0 -21 -4 -41 -10 -44
-5 -3 -10 -21 -10 -39 0 -19 -7 -39 -15 -46 -8 -7 -15 -27 -15 -45 0 -18 -7
-38 -15 -45 -8 -7 -15 -20 -15 -30 0 -10 -7 -23 -15 -30 -8 -7 -15 -27 -15
-44 0 -22 -8 -40 -25 -56 -16 -15 -25 -34 -25 -53 0 -17 -12 -44 -30 -67 -16
-21 -30 -45 -30 -53 0 -8 -7 -20 -15 -27 -8 -7 -15 -20 -15 -29 0 -10 -11 -28
-25 -41 -14 -13 -25 -31 -25 -41 0 -9 -7 -22 -15 -29 -8 -7 -15 -21 -15 -31 0
-10 -13 -33 -30 -51 -16 -18 -30 -40 -30 -50 0 -10 -4 -18 -10 -18 -5 0 -10
-10 -10 -23 0 -13 -13 -36 -30 -52 -16 -16 -30 -36 -30 -44 0 -9 -11 -28 -25
-43 -14 -15 -25 -36 -25 -47 0 -11 -6 -24 -12 -28 -28 -18 -158 -166 -158
-180 0 -8 -38 -56 -85 -106 -47 -51 -85 -99 -85 -107 -1 -8 -36 -53 -80 -99
-43 -46 -80 -93 -82 -104 -2 -13 -12 -23 -23 -25 -11 -2 -30 -16 -43 -30 -13
-14 -55 -60 -95 -102 -40 -42 -130 -137 -201 -213 -71 -75 -135 -137 -142
-137 -7 0 -67 -59 -135 -130 -67 -72 -128 -130 -134 -130 -7 0 -51 -40 -99
-90 -48 -49 -93 -90 -100 -90 -8 0 -32 -20 -55 -45 -23 -25 -47 -45 -54 -45
-7 0 -33 -20 -57 -45 -24 -25 -49 -45 -55 -45 -6 0 -37 -27 -70 -60 -33 -33
-65 -60 -71 -60 -6 0 -31 -20 -55 -45 -24 -25 -51 -45 -59 -45 -8 0 -33 -20
-55 -45 -22 -25 -47 -45 -57 -45 -10 0 -27 -13 -40 -30 -12 -16 -29 -30 -38
-30 -9 0 -34 -18 -55 -40 -21 -22 -44 -40 -50 -40 -6 0 -31 -20 -55 -45 -24
-25 -52 -45 -62 -45 -10 0 -21 -7 -24 -15 -4 -8 -14 -15 -23 -15 -10 0 -30
-13 -46 -30 -16 -16 -36 -30 -45 -30 -9 0 -27 -13 -40 -30 -14 -16 -32 -29
-42 -30 -9 0 -28 -14 -41 -30 -14 -17 -32 -30 -40 -30 -8 0 -20 -7 -27 -15 -7
-8 -20 -15 -30 -15 -10 0 -23 -7 -30 -15 -7 -8 -21 -15 -31 -15 -10 0 -22 -7
-27 -16 -8 -14 -38 -16 -232 -16 -194 0 -225 2 -235 16 -7 9 -21 16 -33 16
-11 0 -22 7 -26 15 -3 8 -14 15 -24 15 -11 0 -25 7 -32 15 -7 8 -20 15 -29 15
-9 1 -27 14 -41 30 -13 17 -31 30 -40 30 -9 0 -29 14 -45 30 -16 16 -34 30
-40 30 -6 0 -24 13 -40 30 -16 16 -36 30 -44 30 -9 1 -27 14 -41 30 -13 17
-31 30 -40 30 -9 0 -29 14 -45 30 -16 17 -35 30 -43 30 -8 0 -23 11 -34 25
-11 14 -27 25 -37 25 -10 0 -36 20 -59 45 -22 25 -47 45 -54 45 -8 0 -34 20
-58 45 -24 25 -49 45 -55 45 -6 0 -39 29 -73 65 -62 64 -62 65 -62 124 0 39
-5 65 -15 74 -10 11 -15 43 -17 113 l-3 99 -161 3 c-128 2 -165 6 -174 17 -8
9 -30 15 -56 15 -41 0 -46 4 -111 75 -37 41 -75 75 -84 75 -8 0 -33 19 -53 42
-84 95 -179 188 -191 188 -6 0 -37 27 -68 59 -30 33 -63 61 -73 63 -10 2 -20
12 -22 23 -5 27 -42 65 -62 65 -11 0 -20 11 -23 29 -4 21 -13 30 -29 33 -13 2
-24 12 -28 25 -8 32 -208 243 -231 243 -13 0 -19 7 -19 23 0 13 -14 36 -30 52
-17 16 -30 36 -30 44 0 9 -43 61 -95 116 -52 55 -94 107 -95 116 0 9 -31 49
-70 90 -38 41 -69 81 -70 89 0 8 -18 35 -40 60 -22 25 -40 52 -40 61 0 9 -7
22 -15 29 -8 7 -15 20 -15 29 0 10 -11 28 -25 41 -14 13 -25 31 -25 40 0 8
-14 30 -30 48 -17 18 -30 41 -30 51 0 10 -7 24 -15 31 -8 7 -15 20 -15 29 0
10 -11 28 -25 41 -14 13 -25 31 -25 41 0 9 -7 22 -15 29 -8 7 -15 20 -15 30 0
10 -7 23 -15 30 -8 7 -15 23 -15 35 0 12 -7 28 -15 35 -8 7 -15 21 -15 31 0
10 -4 21 -10 24 -5 3 -10 14 -10 24 0 10 -7 24 -15 31 -8 7 -15 20 -15 30 0
10 -7 23 -15 30 -8 7 -15 27 -15 45 0 18 -7 38 -15 45 -8 7 -15 27 -15 45 0
18 -7 38 -15 45 -8 7 -15 27 -15 46 0 18 -5 36 -10 39 -5 3 -10 23 -10 43 0
20 -7 50 -15 66 -8 15 -15 36 -15 46 0 10 -7 23 -15 30 -9 8 -15 30 -15 60 0
29 -6 52 -14 59 -8 7 -17 38 -19 74 -10 116 -26 209 -39 224 -20 24 -19 923 1
946 7 9 16 46 19 82 2 36 9 68 13 71 5 3 9 34 9 68 0 44 5 67 15 76 8 7 15 27
15 45 0 18 7 38 15 45 9 8 15 30 15 60 0 30 6 52 15 60 8 7 15 27 15 46 0 18
5 36 10 39 6 3 10 14 10 24 0 10 7 24 15 31 8 7 15 20 15 30 0 10 7 23 15 30
8 7 15 23 15 35 0 12 7 28 15 35 8 7 15 20 15 30 0 10 7 23 15 30 8 7 15 21
15 31 0 10 4 21 10 24 5 3 10 14 10 24 0 9 14 30 30 46 17 16 30 36 30 45 0 9
18 35 40 59 22 23 40 50 40 59 0 10 24 42 53 72 29 30 112 119 186 198 74 78
139 142 145 142 7 0 25 14 41 30 16 17 35 30 44 30 8 0 34 20 58 45 23 25 49
45 57 45 7 0 19 7 26 15 7 8 21 15 32 15 10 0 21 7 24 15 4 8 14 15 23 15 10
0 30 14 46 30 16 17 37 30 47 30 10 0 21 7 24 15 4 9 19 15 39 15 18 0 38 7
45 15 7 8 18 15 25 15 7 0 18 7 25 15 7 8 28 15 47 15 21 0 36 6 39 15 4 9 19
15 39 15 18 0 38 7 45 15 7 8 25 15 40 15 15 0 33 7 40 15 7 8 27 15 45 15 18
0 38 6 44 14 7 8 38 16 72 18 33 2 64 9 67 15 4 5 54 13 111 17 57 3 109 11
116 16 21 17 503 17 515 0z m1250 -8260 c0 -5 -4 -10 -10 -10 -5 0 -10 5 -10
10 0 6 5 10 10 10 6 0 10 -4 10 -10z"/>
<path d="M3670 8389 c-166 -9 -269 -23 -360 -49 -41 -12 -91 -25 -110 -30 -36
-9 -109 -34 -145 -49 -67 -30 -241 -115 -245 -121 -3 -4 -15 -10 -27 -14 -13
-4 -23 -11 -23 -16 0 -4 -8 -10 -17 -14 -22 -7 -46 -22 -94 -58 -20 -16 -40
-28 -43 -28 -4 0 -21 -13 -39 -30 -18 -16 -35 -30 -39 -30 -4 0 -20 -12 -36
-27 -41 -40 -103 -93 -108 -93 -5 0 -97 -94 -148 -151 -69 -77 -226 -299 -226
-319 0 -5 -6 -15 -13 -22 -18 -21 -47 -78 -47 -94 0 -8 -4 -14 -9 -14 -5 0
-13 -10 -17 -22 -4 -13 -17 -45 -29 -73 -40 -87 -115 -323 -115 -359 0 -13 -3
-26 -7 -30 -12 -12 -32 -139 -44 -281 -12 -144 -5 -569 10 -619 6 -17 14 -60
20 -96 17 -110 33 -185 42 -194 5 -6 9 -26 9 -45 1 -20 7 -47 15 -61 8 -14 14
-37 15 -51 0 -15 7 -40 15 -55 8 -16 15 -37 15 -46 0 -9 4 -20 10 -23 5 -3 10
-13 10 -22 0 -8 6 -29 14 -46 7 -18 21 -52 31 -77 57 -147 164 -372 225 -475
16 -27 34 -59 40 -70 13 -26 30 -52 57 -92 13 -17 23 -34 23 -37 0 -16 255
-367 272 -374 4 -2 8 -10 8 -18 0 -8 3 -14 8 -14 4 0 27 -26 52 -57 79 -100
181 -218 260 -304 25 -26 81 -87 125 -134 161 -173 447 -451 654 -634 44 -38
59 -41 90 -17 20 15 54 35 74 42 9 3 17 10 17 15 0 5 10 14 23 19 12 6 34 18
48 28 15 9 55 35 90 57 35 21 69 44 75 50 6 5 22 17 34 25 12 8 42 30 66 48
23 17 48 32 53 32 6 0 11 3 11 8 0 4 17 18 38 32 20 14 42 29 48 35 6 5 22 17
34 25 39 26 154 113 180 137 14 13 28 23 31 23 3 0 17 9 30 21 13 12 43 35 67
52 23 17 42 34 42 39 0 4 4 8 9 8 8 0 51 34 92 72 11 10 24 18 29 18 6 0 10 4
10 8 0 5 20 23 45 41 25 18 60 47 78 65 18 18 52 47 77 66 24 19 56 46 70 60
50 47 131 120 134 120 2 0 32 28 68 63 36 34 82 78 104 98 60 55 304 310 304
318 0 4 -15 15 -32 26 -18 10 -37 24 -43 30 -5 6 -75 61 -155 120 -80 60 -149
113 -155 117 -5 5 -48 36 -95 69 -47 34 -90 67 -96 75 -6 8 -15 14 -19 14 -5
0 -15 7 -24 15 -40 38 -87 75 -97 75 -6 0 -24 -13 -40 -30 -16 -16 -32 -30
-36 -30 -3 0 -28 -20 -55 -45 -26 -25 -54 -45 -60 -45 -7 0 -13 -4 -13 -8 0
-5 -19 -22 -42 -39 -24 -17 -53 -39 -65 -49 -11 -11 -31 -26 -43 -34 -13 -8
-61 -43 -107 -77 -47 -35 -89 -63 -94 -63 -5 0 -9 -4 -9 -10 0 -5 -5 -10 -11
-10 -6 0 -36 -19 -67 -43 -49 -37 -93 -66 -197 -130 -11 -7 -36 -24 -56 -39
-20 -16 -39 -28 -42 -28 -13 0 -127 -73 -127 -81 0 -12 -57 -12 -62 0 -4 11
-123 146 -164 186 -18 16 -53 56 -79 88 -25 32 -54 66 -63 76 -9 10 -48 58
-87 107 -38 49 -78 98 -87 108 -10 11 -35 46 -55 78 -20 32 -41 58 -45 58 -4
0 -8 5 -8 11 0 6 -13 28 -30 49 -16 21 -30 42 -30 48 0 5 -7 12 -15 16 -8 3
-15 10 -15 16 0 6 -15 35 -34 64 -43 67 -156 298 -156 318 0 9 -7 21 -15 28
-8 7 -15 25 -15 40 0 15 -7 41 -15 56 -8 16 -15 36 -15 45 0 9 -3 19 -7 23
-11 10 -31 121 -45 241 -8 73 -8 140 -1 245 12 163 26 227 69 313 8 16 14 35
14 42 0 8 14 37 30 65 17 28 30 53 30 55 0 2 21 35 48 72 44 64 156 184 212
228 89 70 247 155 287 155 11 0 23 4 29 9 34 32 351 47 489 24 61 -11 157 -38
185 -52 9 -5 30 -12 47 -15 18 -4 55 -18 83 -32 27 -13 56 -24 63 -24 7 0 17
-4 23 -9 12 -13 112 -69 147 -82 15 -6 27 -15 27 -20 0 -5 7 -9 15 -9 9 0 18
-7 21 -15 4 -8 12 -15 19 -15 7 0 28 -13 46 -30 19 -16 37 -30 40 -30 3 0 15
-8 26 -17 11 -10 44 -38 73 -63 67 -57 127 -117 164 -163 16 -21 34 -37 39
-37 5 0 30 24 55 52 26 29 67 72 92 96 25 23 59 56 76 72 17 17 34 30 38 30 7
0 23 12 57 43 10 9 23 17 28 17 5 0 11 7 15 15 3 8 14 15 25 15 10 0 21 6 24
13 2 7 22 21 43 32 22 11 41 23 44 26 3 3 28 16 55 30 28 13 54 30 58 36 4 7
19 13 32 13 13 0 26 4 29 9 3 5 22 12 41 15 19 4 35 11 35 16 0 4 15 12 33 15
17 4 38 12 45 18 7 6 32 14 55 18 23 5 76 16 117 25 91 20 397 31 413 15 6 -6
25 -11 41 -11 17 0 44 -7 60 -15 15 -8 35 -15 43 -15 8 0 27 -6 41 -13 15 -8
45 -22 67 -33 45 -21 98 -55 103 -66 2 -5 10 -8 17 -8 25 0 213 -181 242 -233
10 -17 23 -37 28 -43 6 -6 19 -27 30 -47 11 -20 23 -37 27 -37 5 0 8 -6 8 -14
0 -7 7 -19 15 -26 8 -7 15 -24 15 -39 0 -14 7 -35 15 -45 8 -11 15 -28 15 -38
0 -10 6 -21 13 -24 7 -2 13 -22 14 -44 1 -22 7 -50 14 -62 17 -30 24 -330 11
-423 -22 -149 -35 -215 -43 -215 -5 0 -9 -13 -9 -28 0 -16 -7 -37 -15 -48 -8
-10 -15 -35 -15 -55 0 -20 -7 -42 -15 -49 -8 -7 -15 -21 -15 -31 0 -10 -4 -20
-9 -24 -5 -3 -12 -19 -16 -35 -4 -17 -11 -30 -16 -30 -5 0 -9 -7 -9 -15 0 -17
-41 -99 -52 -103 -4 -2 -8 -12 -8 -22 0 -10 -5 -22 -11 -25 -5 -4 -14 -17 -19
-28 -23 -54 -164 -269 -181 -275 -5 -2 -9 -10 -9 -18 0 -8 -7 -17 -15 -20 -8
-4 -15 -10 -15 -15 0 -12 -89 -133 -101 -137 -5 -2 -9 -8 -9 -12 0 -5 -13 -24
-30 -42 -16 -18 -30 -36 -30 -41 0 -5 -12 -21 -27 -36 -32 -33 -56 -60 -137
-156 -172 -206 -520 -557 -781 -790 -16 -15 -49 -45 -72 -66 -24 -21 -45 -39
-47 -39 -3 0 -18 -12 -34 -28 -52 -49 -135 -122 -138 -122 -5 0 -40 -29 -73
-60 -15 -14 -65 -54 -112 -90 -46 -35 -88 -70 -92 -77 -4 -7 -13 -13 -19 -13
-6 0 -16 -6 -22 -14 -12 -15 -255 -196 -262 -196 -3 0 -19 -13 -37 -30 -18
-16 -36 -30 -40 -30 -4 0 -13 -5 -20 -10 -28 -24 -57 -46 -77 -60 -44 -29
-155 -109 -167 -120 -7 -5 -15 -10 -19 -10 -3 0 -23 -13 -44 -30 -21 -16 -41
-30 -45 -30 -4 0 -24 -13 -45 -30 -21 -16 -41 -30 -45 -30 -4 0 -24 -13 -44
-29 -20 -15 -40 -30 -46 -32 -23 -10 -105 -64 -105 -71 0 -3 37 -35 83 -69 45
-35 87 -68 94 -73 6 -6 26 -22 44 -36 18 -14 41 -33 51 -42 10 -10 21 -18 26
-18 4 0 21 -14 39 -30 18 -17 35 -30 38 -30 3 0 42 -27 85 -60 43 -33 83 -60
87 -60 5 0 16 -8 25 -17 23 -24 46 -43 53 -43 6 0 82 -54 112 -80 7 -5 15 -10
18 -10 5 0 64 -39 75 -50 7 -7 43 -29 60 -37 8 -4 20 -14 26 -22 20 -26 77
-18 121 17 23 18 45 32 51 32 6 0 12 3 14 8 2 4 35 29 73 54 140 94 190 130
193 139 2 5 8 9 13 9 13 0 109 72 109 82 0 4 7 8 15 8 8 0 15 4 15 9 0 5 8 12
18 15 9 4 32 20 51 36 18 17 36 30 40 30 3 0 20 13 37 28 18 15 42 34 54 42
13 8 30 22 39 31 9 8 36 30 61 49 25 19 47 37 50 40 3 3 28 23 55 45 28 22 52
43 53 47 2 5 7 8 12 8 4 0 21 11 36 24 118 100 198 169 209 179 7 7 41 37 76
67 35 30 80 71 100 90 20 19 59 54 85 76 27 23 104 95 170 160 67 66 148 145
180 176 51 50 190 194 304 317 87 93 183 203 246 281 38 47 72 87 77 88 4 2 7
10 7 18 0 8 7 14 15 14 8 0 15 5 15 11 0 5 13 24 29 41 17 18 36 43 43 57 7
14 24 37 38 51 14 14 34 41 44 60 11 19 25 39 33 43 7 4 13 15 13 22 0 8 5 15
10 15 6 0 10 6 10 13 0 8 11 24 25 37 14 13 35 43 47 66 11 23 31 53 44 68 13
14 24 32 24 39 0 8 7 20 15 27 8 7 15 17 15 22 0 5 7 16 15 24 8 9 15 24 15
35 0 10 5 19 10 19 6 0 10 9 10 20 0 11 7 23 15 26 8 4 15 14 15 24 0 10 4 20
8 22 11 4 52 86 52 103 0 8 5 15 10 15 6 0 10 9 10 19 0 11 7 26 15 34 7 8 17
26 21 41 3 14 10 26 15 26 5 0 9 10 9 23 0 12 7 31 15 41 8 11 15 30 15 42 0
13 5 26 10 29 6 3 10 15 10 27 0 11 6 32 13 46 36 70 66 151 77 207 12 57 30
127 40 150 5 11 11 47 15 79 3 33 9 64 14 70 5 6 11 49 15 96 4 47 11 89 16
94 14 14 13 602 0 626 -6 11 -13 54 -17 97 -3 43 -12 84 -20 91 -7 7 -13 33
-13 57 0 23 -7 56 -15 71 -8 16 -15 39 -15 52 0 12 -4 22 -10 22 -5 0 -10 17
-10 38 -1 20 -7 48 -15 62 -8 14 -14 35 -15 48 0 12 -4 22 -9 22 -5 0 -12 14
-16 30 -4 17 -10 30 -15 30 -5 0 -11 13 -15 30 -4 16 -11 32 -16 35 -5 4 -9
14 -9 24 0 10 -7 24 -15 31 -8 7 -15 21 -15 32 0 10 -7 21 -15 24 -8 4 -15 15
-15 25 0 10 -4 19 -10 19 -5 0 -12 11 -16 25 -3 14 -10 25 -14 25 -4 0 -10 8
-14 18 -8 24 -29 56 -43 65 -7 4 -13 15 -13 22 0 8 -3 15 -7 15 -5 0 -26 25
-47 55 -22 30 -43 55 -48 55 -4 0 -8 5 -8 10 0 6 -25 34 -55 63 -30 28 -55 57
-55 64 0 7 -6 13 -14 13 -8 0 -16 7 -20 15 -3 8 -11 15 -18 15 -8 0 -26 14
-41 31 -17 20 -33 29 -43 25 -9 -3 -12 -2 -9 4 8 12 -34 60 -53 60 -7 0 -15 7
-18 15 -4 8 -11 15 -18 15 -6 0 -26 14 -44 30 -18 17 -37 30 -42 30 -4 0 -10
7 -14 15 -6 17 -56 21 -56 5 0 -5 -9 -10 -20 -10 -11 0 -20 5 -20 10 0 6 9 10
20 10 29 0 25 27 -5 34 -14 4 -25 11 -25 16 0 6 -9 10 -20 10 -11 0 -20 5 -20
10 0 6 -6 10 -14 10 -7 0 -25 9 -39 20 -14 11 -32 20 -40 20 -8 0 -20 7 -27
15 -7 8 -23 15 -36 15 -13 0 -24 5 -24 10 0 6 -8 10 -17 10 -10 1 -36 9 -58
20 -22 11 -45 19 -51 20 -7 0 -25 7 -40 15 -16 8 -39 15 -51 15 -12 0 -24 4
-27 9 -3 4 -29 11 -58 15 -29 4 -58 12 -64 17 -7 6 -59 12 -115 15 -57 2 -106
9 -109 15 -15 24 -525 -5 -574 -32 -11 -6 -46 -14 -78 -17 -32 -2 -61 -9 -64
-13 -3 -5 -17 -9 -32 -9 -15 0 -40 -7 -56 -15 -15 -8 -36 -15 -46 -15 -10 0
-25 -6 -32 -13 -7 -8 -31 -16 -52 -20 -22 -3 -42 -10 -45 -15 -3 -5 -18 -12
-33 -16 -16 -3 -28 -11 -28 -16 0 -6 -8 -10 -18 -10 -11 0 -39 -11 -63 -25
-24 -14 -51 -27 -59 -31 -8 -3 -22 -10 -30 -15 -8 -5 -25 -13 -37 -19 -13 -5
-23 -14 -23 -20 0 -5 -7 -10 -15 -10 -16 0 -77 -39 -83 -52 -2 -5 -8 -8 -12
-8 -5 0 -24 -13 -42 -30 -18 -16 -38 -30 -45 -30 -7 0 -13 -7 -13 -15 0 -8 -6
-15 -14 -15 -8 0 -16 -7 -20 -15 -9 -25 -50 -17 -76 15 -14 16 -30 29 -35 30
-6 0 -24 12 -41 28 -39 34 -64 51 -86 58 -10 4 -18 10 -18 15 0 5 -10 14 -22
19 -13 6 -36 19 -53 30 -16 10 -50 29 -75 42 -25 13 -51 29 -58 36 -7 6 -21
12 -30 12 -9 0 -26 7 -36 15 -11 8 -29 15 -41 15 -12 0 -26 5 -33 12 -14 14
-200 78 -228 78 -12 0 -35 7 -50 15 -16 8 -45 15 -64 15 -20 0 -41 5 -46 10
-6 6 -42 13 -80 16 -38 3 -87 9 -109 14 -61 14 -177 17 -315 9z m3320 -113 c0
-3 -4 -8 -10 -11 -5 -3 -10 -1 -10 4 0 6 5 11 10 11 6 0 10 -2 10 -4z m365
-126 c18 -8 18 -9 -5 -9 -14 0 -34 4 -45 9 -18 8 -18 9 5 9 14 0 34 -4 45 -9z
m385 -246 c0 -8 -4 -12 -10 -9 -5 3 -10 10 -10 16 0 5 5 9 10 9 6 0 10 -7 10
-16z m328 -336 c2 -17 -1 -26 -10 -24 -25 3 -36 16 -31 36 8 30 37 21 41 -12z
m112 -158 c0 -5 -2 -10 -4 -10 -3 0 -8 5 -11 10 -3 6 -1 10 4 10 6 0 11 -4 11
-10z m96 -163 c8 -4 14 -21 14 -38 0 -26 -2 -28 -19 -20 -25 14 -30 29 -23 71
4 24 7 29 10 15 2 -11 10 -24 18 -28z m40 -92 c1 -8 -2 -13 -7 -9 -5 3 -9 12
-9 21 0 19 13 9 16 -12z m51 -97 c-3 -8 -6 -5 -6 6 -1 11 2 17 5 13 3 -3 4
-12 1 -19z m-1347 -54 c0 -8 -4 -14 -10 -14 -5 0 -10 9 -10 21 0 11 5 17 10
14 6 -3 10 -13 10 -21z m-1633 -160 c-3 -3 -12 -4 -19 -1 -8 3 -5 6 6 6 11 1
17 -2 13 -5z m3103 -423 c0 -11 -4 -23 -10 -26 -6 -4 -10 5 -10 19 0 14 5 26
10 26 6 0 10 -9 10 -19z m17 -378 c-3 -10 -5 -4 -5 12 0 17 2 24 5 18 2 -7 2
-21 0 -30z m-4 -55 c6 -8 7 -23 3 -33 -9 -24 -36 -1 -36 32 0 27 17 27 33 1z
m-136 -650 c-3 -7 -5 -2 -5 12 0 14 2 19 5 13 2 -7 2 -19 0 -25z m-407 -853
c0 -8 -4 -15 -8 -15 -5 0 -9 7 -9 15 0 8 4 15 9 15 4 0 8 -7 8 -15z"/>
<path d="M3880 6810 c0 -5 -23 -10 -51 -10 -45 0 -72 -9 -129 -41 -8 -5 -22
-12 -30 -15 -8 -3 -22 -10 -30 -15 -8 -5 -24 -13 -36 -18 -27 -12 -214 -212
-214 -229 0 -8 -20 -37 -45 -65 -31 -35 -45 -61 -45 -80 0 -16 -7 -35 -15 -43
-8 -9 -15 -24 -15 -34 0 -10 -4 -22 -10 -25 -5 -3 -10 -21 -10 -40 0 -19 -4
-37 -10 -40 -5 -3 -10 -33 -10 -65 0 -32 5 -62 10 -65 6 -3 10 -35 10 -70 0
-35 5 -67 10 -70 6 -3 10 -15 10 -25 0 -10 7 -25 15 -34 8 -8 15 -30 15 -49 0
-19 7 -40 15 -47 8 -7 15 -20 15 -30 0 -10 7 -23 15 -30 8 -7 15 -20 15 -30 0
-10 7 -23 15 -30 8 -7 15 -20 15 -29 0 -9 11 -28 25 -43 14 -15 25 -35 25 -45
0 -10 14 -31 30 -47 17 -16 30 -36 30 -45 0 -9 30 -47 65 -84 36 -38 65 -76
65 -85 0 -9 27 -44 60 -77 33 -33 60 -68 60 -79 0 -10 29 -48 64 -85 35 -36
87 -92 116 -123 52 -57 85 -72 96 -43 4 8 14 15 24 15 10 0 23 7 30 15 7 8 20
15 30 15 9 0 27 14 40 30 13 17 31 30 40 30 10 0 23 7 30 15 7 8 20 15 30 15
9 0 27 14 40 30 13 17 31 30 40 30 10 0 36 20 59 45 23 25 48 45 56 45 8 0 33
20 56 45 23 25 47 45 54 45 7 0 32 20 56 45 24 25 50 45 57 45 7 0 23 11 36
25 15 16 34 25 53 25 17 0 36 7 43 15 10 12 48 15 225 15 177 0 215 -3 225
-15 7 -8 18 -15 25 -15 21 0 70 -28 95 -55 13 -14 31 -25 40 -25 9 0 33 -20
54 -45 22 -25 46 -45 55 -45 8 0 34 -20 58 -45 23 -25 48 -45 55 -45 8 0 27
-13 43 -30 16 -16 35 -30 43 -30 7 0 25 -13 39 -30 13 -16 32 -30 42 -30 9 0
28 -13 41 -30 14 -16 32 -29 41 -30 9 0 44 -30 77 -66 l62 -65 0 -95 c0 -75 3
-96 15 -100 8 -4 15 -17 15 -30 0 -49 29 -40 101 32 38 38 69 77 69 87 0 9 30
50 68 89 37 40 86 92 110 117 23 25 42 52 42 60 0 8 32 49 70 92 39 42 70 83
70 91 0 8 18 32 40 53 22 21 40 48 40 60 1 11 21 40 45 65 25 25 45 52 45 62
0 9 5 20 10 23 6 3 10 14 10 23 0 9 20 39 45 67 25 27 45 58 45 67 0 9 5 20
10 23 6 3 10 14 10 24 0 10 7 24 15 31 8 7 15 20 15 30 0 10 7 23 15 30 8 7
15 20 15 30 0 10 7 23 15 30 8 7 15 28 15 47 0 19 7 41 15 49 8 9 15 24 15 34
0 10 5 22 10 25 6 3 10 42 10 85 0 43 5 82 10 85 6 3 10 33 10 65 0 32 -4 62
-10 65 -5 3 -10 21 -10 40 0 19 -4 37 -10 40 -5 3 -10 21 -10 39 0 19 -7 39
-15 46 -8 7 -15 20 -15 30 0 10 -7 23 -15 30 -8 7 -15 22 -15 34 -1 25 -197
236 -220 236 -9 0 -27 13 -40 30 -14 16 -32 29 -41 30 -9 0 -22 7 -29 15 -7 8
-28 15 -47 15 -21 0 -36 6 -39 15 -4 10 -21 15 -54 15 -27 0 -52 5 -55 10 -3
6 -24 10 -45 10 -21 0 -42 -4 -45 -10 -3 -5 -32 -10 -64 -10 -40 0 -63 -5 -71
-15 -7 -8 -28 -15 -47 -15 -21 0 -36 -6 -39 -15 -4 -9 -19 -15 -39 -15 -18 0
-38 -7 -45 -15 -7 -8 -21 -15 -32 -15 -10 0 -21 -7 -24 -15 -4 -8 -16 -15 -29
-15 -13 0 -25 -7 -29 -15 -3 -8 -14 -15 -24 -15 -11 0 -25 -7 -32 -15 -7 -8
-19 -15 -27 -15 -8 0 -24 -11 -35 -25 -11 -14 -28 -25 -38 -25 -10 0 -30 -13
-43 -30 -14 -16 -32 -30 -40 -30 -8 0 -40 -27 -71 -60 -32 -33 -63 -60 -70
-60 -6 0 -32 -20 -56 -45 -24 -25 -52 -45 -62 -45 -9 0 -21 -7 -26 -16 -8 -14
-37 -16 -231 -16 -190 0 -224 2 -240 16 -10 9 -23 16 -29 16 -6 0 -36 27 -68
60 -31 33 -63 60 -70 60 -8 0 -32 20 -55 45 -23 25 -49 45 -58 45 -9 0 -31 18
-50 40 -19 22 -42 40 -51 40 -10 0 -23 7 -30 15 -7 8 -21 15 -32 15 -10 0 -21
7 -24 15 -4 8 -14 15 -24 15 -10 0 -23 7 -30 15 -7 8 -20 15 -30 15 -10 0 -23
7 -30 15 -7 8 -18 15 -25 15 -7 0 -18 7 -25 15 -7 8 -28 15 -47 15 -21 0 -36
6 -39 15 -4 9 -19 15 -38 15 -17 0 -40 7 -50 15 -12 9 -42 15 -72 15 -29 0
-56 5 -59 10 -3 6 -26 10 -51 10 -24 0 -44 -4 -44 -10z"/>
</g>
</svg>
